<svg id="SvgjsSvg1001" width="288" height="288" xmlns="http://www.w3.org/2000/svg" version="1.1" xmlns:xlink="http://www.w3.org/1999/xlink" xmlns:svgjs="http://svgjs.com/svgjs"><defs id="SvgjsDefs1002"></defs><g id="SvgjsG1008"><svg xmlns="http://www.w3.org/2000/svg" viewBox="0 0 1792 1792" width="288" height="288"><path d="M1312 896c0 17.333-6.334 32.333-19 45l-544 544c-12.667 12.667-27.667 19-45 19-17.334 0-32.584-6.333-45.25-19-12.667-12.667-19.25-27.667-19.25-45v-287.5H192c-17.334 0-32.584-6.583-45.25-19.25-12.667-12.667-19.25-27.917-19.25-45.25V704c0-17.333 6.583-32.083 19.25-44.75 12.666-12.667 27.916-18.75 45.25-18.75h447.5V352c0-17.333 6.583-32.333 19.25-45 12.666-12.667 27.791-19 45.125-19 17.333 0 32.396 6.333 45.063 19l544.031 544c12.666 12.667 19.031 27.667 19.031 45zm351.5-352v704c0 79.333-27.917 147.417-84.25 203.75-56.334 56.333-123.917 84.75-203.25 84.75h-320c-8.667 0-16.167-3.417-22.5-9.75-6.334-6.333-9.5-13.958-9.5-22.625 0-2.667-.334-9.396-1-20.063-.667-10.667-.834-19.531-.5-26.531.333-7 1.333-14.849 3-23.516 1.666-8.667 5-14.925 10-19.258s11.833-6.258 20.5-6.258h320c44 0 81.416-15.917 112.75-47.25 31.333-31.333 46.75-69.25 46.75-113.25V544c0-44-15.417-81.417-46.75-112.75-31.334-31.333-68.75-46.75-112.75-46.75h-312l-11.5-1.25-11.5-3.125-8-5.563-7-9.031-2-13.516c0-2.667-.334-9.341-1-20.008-.667-10.667-.834-19.504-.5-26.504.333-7 1.333-14.835 3-23.502 1.666-8.667 5-14.917 10-19.251s11.833-6.251 20.5-6.251h320c79.333 0 146.916 27.917 203.25 84.25 56.333 56.334 84.25 123.918 84.25 203.251z" fill="#ffffff" class="color000 svgShape"></path></svg></g></svg>