<svg width="270" height="453" viewBox="0 0 270 453" fill="none" xmlns="http://www.w3.org/2000/svg">
<path d="M0 58C0 25.9675 25.9675 0 58 0H211.238C243.271 0 269.238 25.9675 269.238 58V394.947C269.238 426.98 243.271 452.947 211.238 452.947H58C25.9675 452.947 0 426.98 0 394.947V58Z" fill="#D9D9D9"/>
<path d="M203.079 237.115H202.059V226.275V226.135V223.655H203.019V226.135L203.079 226.275V229.815V230.095V237.115ZM206.379 232.475C205.912 232.475 205.472 232.401 205.059 232.255C204.659 232.095 204.306 231.881 203.999 231.615C203.692 231.348 203.432 231.041 203.219 230.695C203.019 230.348 202.886 229.975 202.819 229.575L202.899 228.055H203.079C203.079 228.455 203.146 228.861 203.279 229.275C203.426 229.688 203.632 230.061 203.899 230.395C204.179 230.728 204.519 231.001 204.919 231.215C205.332 231.415 205.806 231.515 206.339 231.515C206.806 231.515 207.232 231.435 207.619 231.275C208.019 231.101 208.352 230.855 208.619 230.535C208.899 230.215 209.112 229.841 209.259 229.415C209.406 228.975 209.479 228.488 209.479 227.955C209.479 227.395 209.399 226.901 209.239 226.475C209.092 226.035 208.872 225.668 208.579 225.375C208.299 225.068 207.966 224.835 207.579 224.675C207.192 224.515 206.759 224.435 206.279 224.435C205.759 224.435 205.292 224.535 204.879 224.735C204.479 224.935 204.146 225.195 203.879 225.515C203.612 225.821 203.412 226.181 203.279 226.595C203.146 226.995 203.079 227.408 203.079 227.835H202.999L202.839 226.175C202.906 225.841 203.032 225.515 203.219 225.195C203.406 224.861 203.646 224.568 203.939 224.315C204.232 224.061 204.579 223.861 204.979 223.715C205.379 223.568 205.832 223.495 206.339 223.495C206.912 223.495 207.452 223.601 207.959 223.815C208.466 224.015 208.906 224.308 209.279 224.695C209.666 225.081 209.972 225.555 210.199 226.115C210.426 226.661 210.539 227.281 210.539 227.975C210.539 228.695 210.419 229.335 210.179 229.895C209.952 230.441 209.646 230.908 209.259 231.295C208.872 231.681 208.426 231.975 207.919 232.175C207.426 232.375 206.912 232.475 206.379 232.475Z" fill="black"/>
<path d="M195.923 232.475C195.296 232.475 194.709 232.368 194.163 232.155C193.629 231.928 193.163 231.621 192.763 231.235C192.363 230.835 192.043 230.355 191.803 229.795C191.576 229.235 191.463 228.608 191.463 227.915C191.463 227.221 191.583 226.601 191.823 226.055C192.076 225.508 192.403 225.048 192.803 224.675C193.216 224.288 193.683 223.995 194.203 223.795C194.723 223.595 195.263 223.495 195.823 223.495C196.503 223.495 197.096 223.615 197.603 223.855C198.123 224.095 198.556 224.415 198.903 224.815C199.249 225.201 199.509 225.641 199.683 226.135C199.856 226.615 199.943 227.101 199.943 227.595V228.135H192.243V227.235H199.403L198.923 227.955V227.615C198.923 227.188 198.849 226.788 198.703 226.415C198.569 226.028 198.369 225.688 198.103 225.395C197.836 225.101 197.509 224.868 197.123 224.695C196.736 224.521 196.296 224.435 195.803 224.435C195.349 224.435 194.916 224.521 194.503 224.695C194.103 224.855 193.749 225.095 193.443 225.415C193.149 225.721 192.916 226.088 192.743 226.515C192.569 226.941 192.483 227.415 192.483 227.935C192.483 228.468 192.576 228.961 192.763 229.415C192.949 229.855 193.196 230.235 193.503 230.555C193.823 230.861 194.196 231.101 194.623 231.275C195.049 231.448 195.496 231.535 195.963 231.535C196.589 231.535 197.156 231.415 197.663 231.175C198.169 230.921 198.596 230.595 198.943 230.195L199.623 230.815C199.143 231.388 198.583 231.808 197.943 232.075C197.303 232.341 196.629 232.475 195.923 232.475Z" fill="black"/>
<path d="M182.876 228.095V227.155H188.636V228.095H182.876ZM182.176 232.315V230.095V229.795V226.255V226.135V223.655H183.196V226.135V226.255V232.315H182.176ZM188.316 232.315V230.095V229.795V226.255V226.135V223.655H189.336V226.135V226.255V232.315H188.316Z" fill="black"/>
<path d="M173.15 228.095V227.155H178.91V228.095H173.15ZM172.45 232.315V230.095V229.795V226.255V226.135V223.655H173.47V226.135V226.255V232.315H172.45ZM178.59 232.315V230.095V229.795V226.255V226.135V223.655H179.61V226.135V226.255V232.315H178.59Z" fill="black"/>
<path d="M168.924 232.315V230.095L168.864 229.795V226.255L168.924 226.135V223.655H169.884V226.135V226.255V232.315H168.924ZM165.564 232.475C165.031 232.475 164.511 232.375 164.004 232.175C163.511 231.975 163.071 231.681 162.684 231.295C162.298 230.908 161.984 230.441 161.744 229.895C161.518 229.335 161.404 228.695 161.404 227.975C161.404 227.281 161.518 226.661 161.744 226.115C161.971 225.555 162.271 225.081 162.644 224.695C163.031 224.308 163.478 224.015 163.984 223.815C164.491 223.601 165.031 223.495 165.604 223.495C166.098 223.495 166.544 223.575 166.944 223.735C167.358 223.881 167.718 224.081 168.024 224.335C168.331 224.588 168.578 224.881 168.764 225.215C168.964 225.535 169.098 225.861 169.164 226.195L168.944 227.835H168.864C168.864 227.395 168.798 226.975 168.664 226.575C168.531 226.175 168.331 225.821 168.064 225.515C167.798 225.195 167.464 224.935 167.064 224.735C166.664 224.535 166.191 224.435 165.644 224.435C165.191 224.435 164.764 224.515 164.364 224.675C163.978 224.835 163.638 225.068 163.344 225.375C163.064 225.668 162.844 226.035 162.684 226.475C162.538 226.901 162.464 227.395 162.464 227.955C162.464 228.488 162.538 228.975 162.684 229.415C162.831 229.841 163.038 230.215 163.304 230.535C163.584 230.855 163.918 231.101 164.304 231.275C164.704 231.435 165.138 231.515 165.604 231.515C166.138 231.515 166.604 231.415 167.004 231.215C167.418 231.001 167.758 230.728 168.024 230.395C168.304 230.061 168.511 229.688 168.644 229.275C168.791 228.861 168.864 228.455 168.864 228.055H169.044L169.124 229.575C169.058 229.975 168.918 230.348 168.704 230.695C168.504 231.041 168.251 231.348 167.944 231.615C167.638 231.881 167.278 232.095 166.864 232.255C166.464 232.401 166.031 232.475 165.564 232.475Z" fill="black"/>
<path d="M155.414 232.475C154.721 232.475 154.101 232.355 153.554 232.115C153.008 231.875 152.548 231.508 152.174 231.015C151.801 230.508 151.514 229.868 151.314 229.095C151.128 228.308 151.034 227.361 151.034 226.255C151.034 224.815 151.174 223.635 151.454 222.715C151.748 221.781 152.134 221.041 152.614 220.495C153.094 219.948 153.641 219.561 154.254 219.335C154.868 219.095 155.501 218.948 156.154 218.895C156.461 218.855 156.734 218.815 156.974 218.775C157.228 218.721 157.448 218.668 157.634 218.615C157.834 218.548 158.008 218.475 158.154 218.395C158.314 218.301 158.454 218.188 158.574 218.055L159.274 218.675C159.141 218.861 158.961 219.028 158.734 219.175C158.508 219.308 158.254 219.421 157.974 219.515C157.694 219.595 157.408 219.661 157.114 219.715C156.821 219.768 156.541 219.808 156.274 219.835C155.634 219.888 155.054 220.015 154.534 220.215C154.014 220.415 153.561 220.775 153.174 221.295C152.801 221.801 152.508 222.521 152.294 223.455C152.094 224.375 151.994 225.588 151.994 227.095L151.594 226.855C151.728 226.281 151.928 225.788 152.194 225.375C152.461 224.948 152.768 224.601 153.114 224.335C153.474 224.055 153.868 223.855 154.294 223.735C154.721 223.601 155.174 223.535 155.654 223.535C156.294 223.535 156.861 223.648 157.354 223.875C157.861 224.101 158.288 224.415 158.634 224.815C158.994 225.215 159.261 225.688 159.434 226.235C159.621 226.768 159.714 227.341 159.714 227.955C159.714 228.621 159.608 229.235 159.394 229.795C159.181 230.341 158.881 230.815 158.494 231.215C158.121 231.615 157.668 231.928 157.134 232.155C156.614 232.368 156.041 232.475 155.414 232.475ZM155.434 231.535C155.901 231.535 156.328 231.455 156.714 231.295C157.114 231.121 157.454 230.881 157.734 230.575C158.028 230.268 158.254 229.895 158.414 229.455C158.574 229.001 158.654 228.501 158.654 227.955C158.654 227.448 158.581 226.988 158.434 226.575C158.301 226.148 158.101 225.781 157.834 225.475C157.568 225.155 157.241 224.908 156.854 224.735C156.468 224.561 156.021 224.475 155.514 224.475C155.128 224.475 154.734 224.535 154.334 224.655C153.948 224.775 153.594 224.975 153.274 225.255C152.968 225.521 152.714 225.881 152.514 226.335C152.328 226.775 152.234 227.308 152.234 227.935C152.234 228.481 152.314 228.981 152.474 229.435C152.634 229.875 152.848 230.255 153.114 230.575C153.394 230.881 153.734 231.121 154.134 231.295C154.534 231.455 154.968 231.535 155.434 231.535Z" fill="black"/>
<path d="M136.512 232.315V223.655H137.532V230.795L137.032 230.835L143.272 223.655H143.652V232.315H142.632V225.075L143.312 224.915L136.892 232.315H136.512ZM140.092 222.175C139.679 222.175 139.299 222.121 138.952 222.015C138.605 221.908 138.312 221.761 138.072 221.575C137.832 221.375 137.652 221.135 137.532 220.855C137.412 220.561 137.352 220.228 137.352 219.855H138.292C138.279 220.321 138.432 220.695 138.752 220.975C139.072 221.255 139.532 221.395 140.132 221.395C140.692 221.395 141.139 221.268 141.472 221.015C141.805 220.748 141.972 220.361 141.972 219.855H142.892C142.892 220.228 142.825 220.561 142.692 220.855C142.559 221.135 142.365 221.375 142.112 221.575C141.872 221.761 141.579 221.908 141.232 222.015C140.885 222.121 140.505 222.175 140.092 222.175Z" fill="black"/>
<path d="M127.927 226.755C129.114 226.755 130.001 226.975 130.587 227.415C131.174 227.855 131.467 228.555 131.467 229.515C131.467 230.475 131.161 231.181 130.547 231.635C129.934 232.088 128.994 232.315 127.727 232.315H125.047V223.655H126.067V226.755H127.927ZM132.927 232.315V223.655H133.947V232.315H132.927ZM127.587 231.375C128.067 231.375 128.487 231.348 128.847 231.295C129.221 231.228 129.521 231.121 129.747 230.975C129.987 230.828 130.161 230.641 130.267 230.415C130.387 230.175 130.447 229.875 130.447 229.515C130.447 228.848 130.234 228.381 129.807 228.115C129.381 227.848 128.701 227.715 127.767 227.715H126.067V231.375H127.587Z" fill="black"/>
<path d="M116.021 228.095V227.155H121.781V228.095H116.021ZM115.321 232.315V230.095V229.795V226.255V226.135V223.655H116.341V226.135V226.255V232.315H115.321ZM121.461 232.315V230.095V229.795V226.255V226.135V223.655H122.481V226.135V226.255V232.315H121.461Z" fill="black"/>
<path d="M103.064 232.315L104.604 223.655H105.044L108.204 230.435L111.264 223.655H111.684L113.224 232.315H112.244L111.164 225.955L108.244 232.375H108.084L105.124 226.095L104.044 232.315H103.064Z" fill="black"/>
<path d="M99.9984 232.315V230.095L99.9384 229.795V226.255L99.9984 226.135V223.655H100.958V226.135V226.255V232.315H99.9984ZM96.6384 232.475C96.1051 232.475 95.5851 232.375 95.0784 232.175C94.5851 231.975 94.1451 231.681 93.7584 231.295C93.3717 230.908 93.0584 230.441 92.8184 229.895C92.5917 229.335 92.4784 228.695 92.4784 227.975C92.4784 227.281 92.5917 226.661 92.8184 226.115C93.0451 225.555 93.3451 225.081 93.7184 224.695C94.1051 224.308 94.5517 224.015 95.0584 223.815C95.5651 223.601 96.1051 223.495 96.6784 223.495C97.1717 223.495 97.6184 223.575 98.0184 223.735C98.4317 223.881 98.7917 224.081 99.0984 224.335C99.4051 224.588 99.6517 224.881 99.8384 225.215C100.038 225.535 100.172 225.861 100.238 226.195L100.018 227.835H99.9384C99.9384 227.395 99.8717 226.975 99.7384 226.575C99.6051 226.175 99.4051 225.821 99.1384 225.515C98.8717 225.195 98.5384 224.935 98.1384 224.735C97.7384 224.535 97.2651 224.435 96.7184 224.435C96.2651 224.435 95.8384 224.515 95.4384 224.675C95.0517 224.835 94.7117 225.068 94.4184 225.375C94.1384 225.668 93.9184 226.035 93.7584 226.475C93.6117 226.901 93.5384 227.395 93.5384 227.955C93.5384 228.488 93.6117 228.975 93.7584 229.415C93.9051 229.841 94.1117 230.215 94.3784 230.535C94.6584 230.855 94.9917 231.101 95.3784 231.275C95.7784 231.435 96.2117 231.515 96.6784 231.515C97.2117 231.515 97.6784 231.415 98.0784 231.215C98.4917 231.001 98.8317 230.728 99.0984 230.395C99.3784 230.061 99.5851 229.688 99.7184 229.275C99.8651 228.861 99.9384 228.455 99.9384 228.055H100.118L100.198 229.575C100.132 229.975 99.9917 230.348 99.7784 230.695C99.5784 231.041 99.3251 231.348 99.0184 231.615C98.7117 231.881 98.3517 232.095 97.9384 232.255C97.5384 232.401 97.1051 232.475 96.6384 232.475Z" fill="black"/>
<path d="M83.5074 232.415C83.4008 232.415 83.3141 232.408 83.2474 232.395C83.1808 232.381 83.1341 232.368 83.1074 232.355V231.295C83.1474 231.308 83.1874 231.315 83.2274 231.315C83.2808 231.315 83.3341 231.315 83.3874 231.315C83.5341 231.315 83.6874 231.261 83.8474 231.155C84.0208 231.035 84.1741 230.795 84.3074 230.435C84.4541 230.075 84.5741 229.561 84.6674 228.895C84.7608 228.215 84.8074 227.315 84.8074 226.195V223.655H90.3874V232.315H89.3474V224.595H85.7874V226.735C85.7874 227.815 85.7274 228.721 85.6074 229.455C85.4874 230.175 85.3208 230.755 85.1074 231.195C84.8941 231.621 84.6474 231.935 84.3674 232.135C84.1008 232.321 83.8141 232.415 83.5074 232.415Z" fill="black"/>
<path d="M81.2817 232.315L76.7217 227.775L80.5217 223.655H81.6617V223.795L78.0417 227.635L82.5017 232.175V232.315H81.2817ZM75.6417 228.195V227.295H77.3217V228.195H75.6417ZM75.2817 232.315V230.095V229.795V226.255V226.135V223.655H76.3017V226.135V226.255V232.315H75.2817Z" fill="black"/>
<path d="M69.1454 232.475C68.5188 232.475 67.9321 232.368 67.3854 232.155C66.8521 231.928 66.3854 231.621 65.9854 231.235C65.5854 230.835 65.2654 230.355 65.0254 229.795C64.7988 229.235 64.6854 228.608 64.6854 227.915C64.6854 227.221 64.8054 226.601 65.0454 226.055C65.2988 225.508 65.6254 225.048 66.0254 224.675C66.4388 224.288 66.9054 223.995 67.4254 223.795C67.9454 223.595 68.4854 223.495 69.0454 223.495C69.7254 223.495 70.3188 223.615 70.8254 223.855C71.3454 224.095 71.7788 224.415 72.1254 224.815C72.4721 225.201 72.7321 225.641 72.9054 226.135C73.0788 226.615 73.1654 227.101 73.1654 227.595V228.135H65.4654V227.235H72.6254L72.1454 227.955V227.615C72.1454 227.188 72.0721 226.788 71.9254 226.415C71.7921 226.028 71.5921 225.688 71.3254 225.395C71.0588 225.101 70.7321 224.868 70.3454 224.695C69.9588 224.521 69.5188 224.435 69.0254 224.435C68.5721 224.435 68.1388 224.521 67.7254 224.695C67.3254 224.855 66.9721 225.095 66.6654 225.415C66.3721 225.721 66.1388 226.088 65.9654 226.515C65.7921 226.941 65.7054 227.415 65.7054 227.935C65.7054 228.468 65.7988 228.961 65.9854 229.415C66.1721 229.855 66.4188 230.235 66.7254 230.555C67.0454 230.861 67.4188 231.101 67.8454 231.275C68.2721 231.448 68.7188 231.535 69.1854 231.535C69.8121 231.535 70.3788 231.415 70.8854 231.175C71.3921 230.921 71.8188 230.595 72.1654 230.195L72.8454 230.815C72.3654 231.388 71.8054 231.808 71.1654 232.075C70.5254 232.341 69.8521 232.475 69.1454 232.475Z" fill="black"/>
<path d="M59.9212 218.315C60.5879 218.315 61.1812 218.421 61.7012 218.635C62.2345 218.848 62.6812 219.135 63.0412 219.495C63.4145 219.855 63.7012 220.281 63.9012 220.775C64.1012 221.255 64.2012 221.761 64.2012 222.295C64.2012 222.815 64.1012 223.321 63.9012 223.815C63.7012 224.308 63.4145 224.741 63.0412 225.115C62.6812 225.475 62.2412 225.768 61.7212 225.995C61.2012 226.221 60.6145 226.335 59.9612 226.335H57.2812V232.315H56.2212V218.315H59.9212ZM59.8212 225.315C60.3279 225.315 60.7812 225.235 61.1812 225.075C61.5945 224.915 61.9412 224.701 62.2212 224.435C62.5145 224.155 62.7345 223.835 62.8812 223.475C63.0412 223.101 63.1212 222.708 63.1212 222.295C63.1212 221.881 63.0412 221.495 62.8812 221.135C62.7345 220.775 62.5145 220.461 62.2212 220.195C61.9412 219.928 61.6012 219.721 61.2012 219.575C60.8012 219.415 60.3412 219.335 59.8212 219.335H57.2812V225.315H59.8212Z" fill="black"/>
</svg>
